<mxfile host="app.diagrams.net" modified="2024-03-27T19:35:14.621Z" agent="Mozilla/5.0 (Windows NT 10.0; Win64; x64) AppleWebKit/537.36 (KHTML, like Gecko) Chrome/123.0.0.0 Safari/537.36" etag="OMajzUyJW8eSAsnU84zA" version="24.0.7" type="device">
  <diagram name="PÃ¡gina-1" id="Inq2HeMuOW21ph27KyrE">
    <mxGraphModel dx="1120" dy="529" grid="1" gridSize="10" guides="1" tooltips="1" connect="1" arrows="1" fold="1" page="1" pageScale="1" pageWidth="827" pageHeight="1169" math="0" shadow="0">
      <root>
        <mxCell id="0" />
        <mxCell id="1" parent="0" />
        <mxCell id="ZUygM236EY5EBduo-bD8-5" style="edgeStyle=orthogonalEdgeStyle;rounded=0;orthogonalLoop=1;jettySize=auto;html=1;" edge="1" parent="1" source="ZUygM236EY5EBduo-bD8-1">
          <mxGeometry relative="1" as="geometry">
            <mxPoint x="419.5" y="70" as="targetPoint" />
          </mxGeometry>
        </mxCell>
        <mxCell id="ZUygM236EY5EBduo-bD8-1" value="" style="ellipse;html=1;shape=startState;fillColor=#000000;strokeColor=#ff0000;" vertex="1" parent="1">
          <mxGeometry x="399" width="41" height="40" as="geometry" />
        </mxCell>
        <mxCell id="ZUygM236EY5EBduo-bD8-20" style="edgeStyle=orthogonalEdgeStyle;rounded=0;orthogonalLoop=1;jettySize=auto;html=1;" edge="1" parent="1" source="ZUygM236EY5EBduo-bD8-9" target="ZUygM236EY5EBduo-bD8-16">
          <mxGeometry relative="1" as="geometry" />
        </mxCell>
        <mxCell id="ZUygM236EY5EBduo-bD8-9" value="cadastro do coordenador" style="rounded=1;whiteSpace=wrap;html=1;arcSize=40;fontColor=#000000;fillColor=#ffffc0;strokeColor=#ff0000;" vertex="1" parent="1">
          <mxGeometry x="359.5" y="70" width="120" height="40" as="geometry" />
        </mxCell>
        <mxCell id="ZUygM236EY5EBduo-bD8-21" style="edgeStyle=orthogonalEdgeStyle;rounded=0;orthogonalLoop=1;jettySize=auto;html=1;" edge="1" parent="1" source="ZUygM236EY5EBduo-bD8-16" target="ZUygM236EY5EBduo-bD8-22">
          <mxGeometry relative="1" as="geometry">
            <mxPoint x="600" y="190" as="targetPoint" />
          </mxGeometry>
        </mxCell>
        <mxCell id="ZUygM236EY5EBduo-bD8-27" value="Curso" style="edgeLabel;html=1;align=center;verticalAlign=middle;resizable=0;points=[];" vertex="1" connectable="0" parent="ZUygM236EY5EBduo-bD8-21">
          <mxGeometry x="-0.2092" y="-2" relative="1" as="geometry">
            <mxPoint as="offset" />
          </mxGeometry>
        </mxCell>
        <mxCell id="ZUygM236EY5EBduo-bD8-26" style="edgeStyle=orthogonalEdgeStyle;rounded=0;orthogonalLoop=1;jettySize=auto;html=1;entryX=1;entryY=0.5;entryDx=0;entryDy=0;" edge="1" parent="1" source="ZUygM236EY5EBduo-bD8-16" target="ZUygM236EY5EBduo-bD8-23">
          <mxGeometry relative="1" as="geometry" />
        </mxCell>
        <mxCell id="ZUygM236EY5EBduo-bD8-28" value="Professor" style="edgeLabel;html=1;align=center;verticalAlign=middle;resizable=0;points=[];" vertex="1" connectable="0" parent="ZUygM236EY5EBduo-bD8-26">
          <mxGeometry x="-0.061" y="-2" relative="1" as="geometry">
            <mxPoint as="offset" />
          </mxGeometry>
        </mxCell>
        <mxCell id="ZUygM236EY5EBduo-bD8-34" style="edgeStyle=orthogonalEdgeStyle;rounded=0;orthogonalLoop=1;jettySize=auto;html=1;entryX=0.5;entryY=0;entryDx=0;entryDy=0;" edge="1" parent="1" source="ZUygM236EY5EBduo-bD8-16" target="ZUygM236EY5EBduo-bD8-32">
          <mxGeometry relative="1" as="geometry" />
        </mxCell>
        <mxCell id="ZUygM236EY5EBduo-bD8-45" value="Aluno" style="edgeLabel;html=1;align=center;verticalAlign=middle;resizable=0;points=[];" vertex="1" connectable="0" parent="ZUygM236EY5EBduo-bD8-34">
          <mxGeometry x="-0.4999" relative="1" as="geometry">
            <mxPoint as="offset" />
          </mxGeometry>
        </mxCell>
        <mxCell id="ZUygM236EY5EBduo-bD8-16" value="Cadastro do professor do curso ou do aluno?" style="rhombus;whiteSpace=wrap;html=1;fontColor=#000000;fillColor=#ffffc0;strokeColor=#ff0000;" vertex="1" parent="1">
          <mxGeometry x="360.31" y="150" width="118.37" height="90" as="geometry" />
        </mxCell>
        <mxCell id="ZUygM236EY5EBduo-bD8-42" style="edgeStyle=orthogonalEdgeStyle;rounded=0;orthogonalLoop=1;jettySize=auto;html=1;entryX=1;entryY=0.5;entryDx=0;entryDy=0;" edge="1" parent="1" source="ZUygM236EY5EBduo-bD8-22" target="ZUygM236EY5EBduo-bD8-36">
          <mxGeometry relative="1" as="geometry">
            <Array as="points">
              <mxPoint x="630" y="420" />
            </Array>
          </mxGeometry>
        </mxCell>
        <mxCell id="ZUygM236EY5EBduo-bD8-22" value="cadastro do curso" style="rounded=1;whiteSpace=wrap;html=1;arcSize=40;fontColor=#000000;fillColor=#ffffc0;strokeColor=#ff0000;" vertex="1" parent="1">
          <mxGeometry x="570" y="175" width="120" height="40" as="geometry" />
        </mxCell>
        <mxCell id="ZUygM236EY5EBduo-bD8-39" style="edgeStyle=orthogonalEdgeStyle;rounded=0;orthogonalLoop=1;jettySize=auto;html=1;entryX=0.25;entryY=1;entryDx=0;entryDy=0;" edge="1" parent="1" source="ZUygM236EY5EBduo-bD8-23" target="ZUygM236EY5EBduo-bD8-22">
          <mxGeometry relative="1" as="geometry">
            <Array as="points">
              <mxPoint x="220" y="280" />
              <mxPoint x="600" y="280" />
            </Array>
          </mxGeometry>
        </mxCell>
        <mxCell id="ZUygM236EY5EBduo-bD8-23" value="Realizar o cadastro do professor" style="rounded=1;whiteSpace=wrap;html=1;arcSize=40;fontColor=#000000;fillColor=#ffffc0;strokeColor=#ff0000;" vertex="1" parent="1">
          <mxGeometry x="160" y="175" width="120" height="40" as="geometry" />
        </mxCell>
        <mxCell id="ZUygM236EY5EBduo-bD8-38" style="edgeStyle=orthogonalEdgeStyle;rounded=0;orthogonalLoop=1;jettySize=auto;html=1;entryX=0.5;entryY=0;entryDx=0;entryDy=0;" edge="1" parent="1" source="ZUygM236EY5EBduo-bD8-32" target="ZUygM236EY5EBduo-bD8-36">
          <mxGeometry relative="1" as="geometry" />
        </mxCell>
        <mxCell id="ZUygM236EY5EBduo-bD8-32" value="Cadastro do aluno" style="rounded=1;whiteSpace=wrap;html=1;arcSize=40;fontColor=#000000;fillColor=#ffffc0;strokeColor=#ff0000;" vertex="1" parent="1">
          <mxGeometry x="359.49" y="300" width="120" height="40" as="geometry" />
        </mxCell>
        <mxCell id="ZUygM236EY5EBduo-bD8-44" style="edgeStyle=orthogonalEdgeStyle;rounded=0;orthogonalLoop=1;jettySize=auto;html=1;entryX=0.5;entryY=0;entryDx=0;entryDy=0;" edge="1" parent="1" source="ZUygM236EY5EBduo-bD8-36" target="ZUygM236EY5EBduo-bD8-43">
          <mxGeometry relative="1" as="geometry" />
        </mxCell>
        <mxCell id="ZUygM236EY5EBduo-bD8-36" value="Matricula" style="rounded=1;whiteSpace=wrap;html=1;arcSize=40;fontColor=#000000;fillColor=#ffffc0;strokeColor=#ff0000;" vertex="1" parent="1">
          <mxGeometry x="360.31" y="400" width="120" height="40" as="geometry" />
        </mxCell>
        <mxCell id="ZUygM236EY5EBduo-bD8-43" value="" style="ellipse;html=1;shape=endState;fillColor=#000000;strokeColor=#ff0000;" vertex="1" parent="1">
          <mxGeometry x="405.31" y="490" width="30" height="30" as="geometry" />
        </mxCell>
      </root>
    </mxGraphModel>
  </diagram>
</mxfile>
